<?xml version="1.0" standalone="no"?><!DOCTYPE svg PUBLIC "-//W3C//DTD SVG 1.1//EN" "http://www.w3.org/Graphics/SVG/1.1/DTD/svg11.dtd"><svg class="icon" width="200px" height="200.00px" viewBox="0 0 1024 1024" version="1.1" xmlns="http://www.w3.org/2000/svg"><path fill="#333333" d="M340.6 121.6c3.8 0 7.2 1.3 10 4.2 2.9 2.9 4.2 6.2 4.2 10v657.3c0 5.9-2.6 10.1-7.6 12.4L132.9 920.1c-2.1 1.1-4.3 1.8-6.7 1.8-3.8 0-7.2-1.3-10-4.2-2.9-2.9-4.2-6.2-4.2-10V250.3c0-5.9 2.6-10.1 7.6-12.4l214.3-114.4c2-1.1 4.3-1.9 6.7-1.9z m57.1 0c2.4 0 4.5 0.5 6.3 1.2l228.7 114.3c5.4 3 8.1 7.3 8.1 12.9v657.3c0 3.8-1.3 7.2-4.2 10-2.9 2.8-6.2 4.2-10 4.2-2.4 0-4.5-0.5-6.3-1.2L391.4 806.1c-5.4-3-8.1-7.3-8.1-12.9V135.9c0-3.8 1.3-7.2 4.2-10 3-2.9 6.4-4.3 10.2-4.3z m500 0c3.8 0 7.2 1.3 10 4.2s4.2 6.2 4.2 10v657.3c0 5.9-2.6 10.1-7.6 12.4L690.2 920.1c-2.1 1.1-4.3 1.8-6.7 1.8-3.8 0-7.2-1.3-10-4.2-2.9-2.9-4.2-6.2-4.2-10V250.3c0-5.9 2.6-10.1 7.6-12.4l214.4-114.5c1.8-1 4.1-1.8 6.4-1.8z" /></svg>